<?xml version="1.0" encoding="UTF-8"?>
<svg id="Calque_1" data-name="Calque 1" xmlns="http://www.w3.org/2000/svg" viewBox="0 0 600 600">
  <defs>
    <style>
      .cls-1 {
        fill: #001f29;
      }

      .cls-2 {
        fill: #fffeff;
      }

      .cls-3 {
        fill: #018292;
      }
    </style>
  </defs>
  <rect class="cls-2" x="-973.5" y="-638.75" width="2621" height="1779"/>
  <g>
    <path class="cls-1" d="m309.2,300.05c0-44.35,0-88.7,0-133.05,0-11.72,7.22-20.05,18.95-20.47,15.34-.55,30.71-.31,46.07-.34,21.39-.04,42.78.04,64.17-.03,13.78-.04,27.12,1.98,40.26,6.43,17.93,6.06,32.47,16.46,43.74,31.45,8,10.64,12.96,22.66,15.79,35.68,2.77,12.79,4.4,25.63,3.32,38.71-.83,10-2.41,19.88-5.98,29.33-9.61,25.46-28.15,41.88-53.1,51.65-13.52,5.29-27.55,8.24-42.05,9.72-9.13.93-18.24,1.33-27.37,1.65-9.97.35-17.66-6.08-20.68-15.69-1.99-6.33,2.3-17.23,9.04-20.92,3.63-1.98,7.42-3.1,11.61-3.14,11.98-.14,23.95-.68,35.73-3.11,15.95-3.3,30.96-8.52,41.96-21.44,6.49-7.63,9.67-16.51,10.52-26.5.46-5.41,1.04-10.79.59-16.19-1.37-16.23-5.25-31.42-17.87-43.09-7.69-7.12-17.03-10.59-26.93-13.11-5.21-1.33-10.48-1.69-15.81-1.7-28.68-.05-57.35-.09-86.03-.14-.34,0-.68,0-1.02,0-5.17.04-5.15.04-5.15,5.06.01,80.88.02,161.75.03,242.63,0,13.26-10.13,22.1-23.64,20.14-8.3-1.2-15.99-8.66-16.02-18.08-.15-45.14-.07-90.29-.07-135.44h-.06Z"/>
    <path class="cls-3" d="m251.26,312.4c0-40.83-.04-81.66.07-122.48,0-3.26-.88-4.32-4.19-4.3-23.32.12-46.64.03-69.96.09-8.42.02-16.87-.15-25.24.51-22.71,1.77-44.49,13.85-51.27,40.41-3.54,13.9-4.46,27.96-.72,42.01,4.78,17.93,17.18,28.49,34.05,34.67,9.8,3.59,19.89,5.69,30.29,6.81,7.99.86,15.95,1.41,23.97,1.29,12.59-.19,22.24,12.45,18.73,24.51-2.85,9.79-9.71,15.18-20.19,14.77-13.1-.52-26.22-.66-39.22-3.08-15.95-2.97-31.31-7.46-45.33-15.7-22-12.92-35.8-31.9-41.54-56.76-2.33-10.1-2.78-20.3-2.46-30.58.7-22.58,6.59-43.55,20.37-61.79,8.91-11.8,20.37-20.62,33.93-26.66,15.03-6.69,30.68-9.85,47.25-9.74,35.25.23,70.51-.19,105.77-.22,6.21,0,12.47.05,17.69,4.61,4.56,3.99,6.74,8.61,7.01,14.72,1.06,23.21.31,46.42.37,69.62.17,65.89,0,131.78.23,197.68.04,11.79-8.8,21.83-22.32,20.86-9.36-.67-17.26-9.14-17.27-18.77-.03-31.64-.01-63.28-.01-94.93,0-9.19,0-18.37,0-27.56Z"/>
  </g>
</svg>