<?xml version="1.0" encoding="UTF-8"?>
<svg id="Calque_1" data-name="Calque 1" xmlns="http://www.w3.org/2000/svg" viewBox="0 0 600 600">
  <defs>
    <style>
      .cls-1 {
        fill: #001f29;
      }

      .cls-2 {
        fill: #fffeff;
      }

      .cls-3 {
        fill: #018292;
      }
    </style>
  </defs>
  <g>
    <path class="cls-3" d="m251.26,312.4c0-40.83-.04-81.66.07-122.48,0-3.26-.88-4.32-4.19-4.3-23.32.12-46.64.03-69.96.09-8.42.02-16.87-.15-25.24.51-22.71,1.77-44.49,13.85-51.27,40.41-3.54,13.9-4.46,27.96-.72,42.01,4.78,17.93,17.18,28.49,34.05,34.67,9.8,3.59,19.89,5.69,30.29,6.81,7.99.86,15.95,1.41,23.97,1.29,12.59-.19,22.24,12.45,18.73,24.51-2.85,9.79-9.71,15.18-20.19,14.77-13.1-.52-26.22-.66-39.22-3.08-15.95-2.97-31.31-7.46-45.33-15.7-22-12.92-35.8-31.9-41.54-56.76-2.33-10.1-2.78-20.3-2.46-30.58.7-22.58,6.59-43.55,20.37-61.79,8.91-11.8,20.37-20.62,33.93-26.66,15.03-6.69,30.68-9.85,47.25-9.74,35.25.23,70.51-.19,105.77-.22,6.21,0,12.47.05,17.69,4.61,4.56,3.99,6.74,8.61,7.01,14.72,1.06,23.21.31,46.42.37,69.62.17,65.89,0,131.78.23,197.68.04,11.79-8.8,21.83-22.32,20.86-9.36-.67-17.26-9.14-17.27-18.77-.03-31.64-.01-63.28-.01-94.93,0-9.19,0-18.37,0-27.56Z"/>
  </g>
</svg>