<?xml version="1.0" encoding="UTF-8"?>
<svg id="Calque_1" data-name="Calque 1" xmlns="http://www.w3.org/2000/svg" viewBox="0 0 600 600">
  <defs>
    <style>
      .cls-1 {
        fill: #001f29;
      }

      .cls-2 {
        fill: #fffeff;
      }

      .cls-3 {
        fill: #018292;
      }
    </style>
  </defs>
  <g>
    <path class="cls-1" d="m309.2,300.05c0-44.35,0-88.7,0-133.05,0-11.72,7.22-20.05,18.95-20.47,15.34-.55,30.71-.31,46.07-.34,21.39-.04,42.78.04,64.17-.03,13.78-.04,27.12,1.98,40.26,6.43,17.93,6.06,32.47,16.46,43.74,31.45,8,10.64,12.96,22.66,15.79,35.68,2.77,12.79,4.4,25.63,3.32,38.71-.83,10-2.41,19.88-5.98,29.33-9.61,25.46-28.15,41.88-53.1,51.65-13.52,5.29-27.55,8.24-42.05,9.72-9.13.93-18.24,1.33-27.37,1.65-9.97.35-17.66-6.08-20.68-15.69-1.99-6.33,2.3-17.23,9.04-20.92,3.63-1.98,7.42-3.1,11.61-3.14,11.98-.14,23.95-.68,35.73-3.11,15.95-3.3,30.96-8.52,41.96-21.44,6.49-7.63,9.67-16.51,10.52-26.5.46-5.41,1.04-10.79.59-16.19-1.37-16.23-5.25-31.42-17.87-43.09-7.69-7.12-17.03-10.59-26.93-13.11-5.21-1.33-10.48-1.69-15.81-1.7-28.68-.05-57.35-.09-86.03-.14-.34,0-.68,0-1.02,0-5.17.04-5.15.04-5.15,5.06.01,80.88.02,161.75.03,242.63,0,13.26-10.13,22.1-23.64,20.14-8.3-1.2-15.99-8.66-16.02-18.08-.15-45.14-.07-90.29-.07-135.44h-.06Z"/>
  </g>
</svg>